{"asset":{"version":"2.0","generator":"VECTARY"},"nodes":[{"translation":[0,0,0],"scale":[0.49474299238763575,0.49474299238763575,0.49474299238763575],"rotation":[5.551115123125783e-17,0.9470541450216237,0,0.32107389554020327],"name":"root","children":[1]},{"translation":[-0.038946990000284815,0.0001676898728675269,-0.0615013610058977],"scale":[0.007980914771865041,0.00798091758042574,0.007980914771865041],"rotation":[0,0.7071066498756257,0,0.7071069124974451],"name":"mesh_id48","mesh":0},{"translation":[-0.20984394942569798,0.20424495485935562,1.105947088454039],"scale":[1,1,1],"rotation":[0.011287328526801838,-0.14639906618794,0.0016705635920020445,0.9891598045064873],"name":"Camera","camera":0}],"materials":[{"pbrMetallicRoughness":{"baseColorFactor":[1,1,1,1],"baseColorTexture":{"index":0,"extensions":{"KHR_texture_transform":{"offset":[0,0],"scale":[1,1],"rotation":0}},"texCoord":0},"metallicRoughnessTexture":{"index":1,"extensions":{"KHR_texture_transform":{"offset":[0,0],"scale":[1,1],"rotation":0}},"texCoord":0},"metallicFactor":1,"roughnessFactor":1},"name":"71","emissiveFactor":[0,0,0],"alphaMode":"OPAQUE","doubleSided":true}],"textures":[{"sampler":0,"source":0},{"sampler":0,"source":1}],"images":[{"uri":"Gltf_Import.jpg","mimeType":"image/jpeg"},{"uri":"Gltf_Import_1.jpg","mimeType":"image/jpeg"}],"samplers":[{"wrapS":10497,"wrapT":10497}],"meshes":[{"primitives":[{"mode":4,"attributes":{"POSITION":1,"NORMAL":2,"TEXCOORD_0":3},"material":0,"indices":0}]}],"accessors":[{"bufferView":0,"byteOffset":0,"componentType":5125,"count":74322,"type":"SCALAR"},{"bufferView":1,"byteOffset":0,"componentType":5126,"count":14568,"max":[24.370464324951172,41.28169631958008,15.971904754638672],"min":[-39.782569885253906,-0.0210113525390625,-6.211880683898926],"type":"VEC3"},{"bufferView":2,"byteOffset":0,"componentType":5126,"count":14568,"type":"VEC3"},{"bufferView":3,"byteOffset":0,"componentType":5126,"count":14568,"type":"VEC2"}],"bufferViews":[{"buffer":0,"byteOffset":0,"byteLength":297288,"target":34963},{"buffer":0,"byteOffset":297288,"byteLength":174816,"target":34962},{"buffer":0,"byteOffset":472104,"byteLength":174816,"target":34962},{"buffer":0,"byteOffset":646920,"byteLength":116544,"target":34962}],"cameras":[{"name":"Camera","type":"perspective","extras":{"targetDistance":1.0912619469551754},"perspective":{"aspectRatio":1.4259597806215722,"yfov":0.6108652381980153,"zfar":61.43409739403607,"znear":0.0014259597806215722}}],"scene":0,"scenes":[{"nodes":[0,2],"name":"f2176e57-1beb-4734-a27a-fefe3b7854e1"}],"extensionsUsed":["KHR_texture_transform"],"buffers":[{"byteLength":763464,"uri":"f2176e57-1beb-4734-a27a-fefe3b7854e1.bin"}]}